<?xml version="1.0" standalone="no"?>
<!DOCTYPE svg PUBLIC "-//W3C//DTD SVG 20010904//EN"
 "http://www.w3.org/TR/2001/REC-SVG-20010904/DTD/svg10.dtd">
<svg version="1.0" xmlns="http://www.w3.org/2000/svg"
 width="908.000000pt" height="908.000000pt" viewBox="0 0 908.000000 908.000000"
 preserveAspectRatio="xMidYMid meet">

<g transform="translate(0.000000,908.000000) scale(0.100000,-0.100000)"
fill="#000000" stroke="none">
<path d="M5070 8660 c-7 -5 -20 -6 -28 -3 -8 4 -19 -1 -24 -10 -4 -9 -15 -14
-22 -11 -8 3 -17 0 -21 -5 -3 -6 -11 -9 -16 -6 -5 4 -9 1 -9 -5 0 -6 -11 -15
-25 -20 -14 -5 -25 -14 -25 -20 0 -6 -4 -8 -10 -5 -5 3 -10 2 -10 -3 0 -5 -11
-14 -24 -20 -13 -6 -30 -24 -37 -41 -8 -17 -18 -31 -24 -31 -8 0 -58 -98 -61
-119 0 -3 -5 -17 -11 -31 -6 -14 -14 -33 -17 -42 -6 -20 -40 -27 -81 -16 -16
5 -100 5 -185 2 -137 -6 -158 -5 -172 10 -9 9 -21 16 -27 16 -6 0 -10 3 -10 8
5 28 -3 52 -17 52 -8 0 -12 5 -9 10 3 6 1 10 -6 10 -7 0 -9 3 -6 7 6 5 -16 28
-59 63 -7 5 -15 6 -18 3 -3 -4 -6 1 -6 10 0 10 -8 17 -20 17 -11 0 -23 6 -26
14 -3 8 -12 12 -20 9 -8 -3 -14 0 -14 7 0 7 -7 10 -15 6 -9 -3 -15 0 -15 9 0
14 -16 19 -67 18 -13 0 -23 6 -23 14 0 8 -8 13 -17 12 -10 -1 -26 1 -35 6 -10
4 -25 5 -33 1 -8 -3 -21 1 -29 9 -15 16 -13 15 -281 16 -251 1 -262 0 -276
-17 -7 -8 -20 -12 -31 -8 -10 3 -25 0 -33 -6 -8 -6 -19 -9 -26 -5 -6 4 -15 2
-19 -5 -5 -7 -25 -15 -46 -17 -21 -2 -41 -8 -44 -12 -3 -5 -16 -12 -30 -16
-14 -4 -33 -14 -42 -23 -10 -8 -18 -12 -18 -7 0 4 -7 2 -15 -5 -8 -7 -15 -9
-15 -4 0 5 -4 3 -9 -5 -5 -8 -18 -16 -27 -17 -10 -2 -23 -9 -29 -16 -5 -7 -19
-15 -30 -16 -10 -2 -27 -13 -37 -24 -10 -12 -18 -18 -18 -14 0 4 -10 -2 -22
-14 -12 -11 -25 -20 -29 -20 -5 0 -20 -12 -36 -27 -15 -16 -31 -28 -35 -28 -7
0 -27 -18 -148 -138 -72 -71 -153 -163 -150 -172 1 -3 -8 -15 -20 -25 -12 -10
-21 -21 -21 -24 3 -20 -1 -26 -15 -26 -10 0 -14 -6 -10 -15 3 -8 -4 -21 -17
-30 -12 -8 -18 -15 -13 -15 4 0 -4 -14 -18 -31 -14 -17 -26 -37 -26 -45 0 -8
-4 -14 -9 -14 -8 0 -23 -41 -20 -56 0 -4 -4 -10 -9 -13 -16 -10 -64 -120 -57
-131 3 -6 2 -10 -4 -10 -9 0 -24 -32 -27 -55 0 -5 -8 -27 -16 -47 -9 -20 -14
-46 -11 -57 3 -13 1 -21 -7 -21 -7 0 -10 -8 -8 -18 3 -10 -1 -23 -9 -31 -8 -7
-11 -21 -8 -32 4 -11 1 -26 -5 -34 -6 -8 -9 -23 -5 -35 4 -12 1 -28 -6 -36
-25 -31 -29 -453 -4 -493 8 -14 11 -33 18 -111 2 -19 8 -44 14 -55 6 -11 8
-26 5 -33 -2 -8 1 -24 8 -37 7 -13 10 -31 6 -40 -6 -17 10 -97 26 -128 5 -10
6 -22 3 -28 -7 -11 14 -108 28 -126 5 -7 6 -17 3 -22 -6 -9 66 -325 84 -366 8
-19 18 -54 44 -159 7 -28 17 -51 23 -53 6 -2 9 -13 6 -24 -3 -10 0 -25 6 -33
6 -7 9 -21 5 -30 -4 -10 0 -18 10 -22 11 -4 14 -13 11 -24 -3 -10 -1 -21 5
-25 6 -4 8 -15 5 -26 -4 -12 -1 -21 10 -25 10 -4 13 -13 9 -26 -3 -10 0 -25 6
-33 6 -8 9 -19 5 -25 -4 -6 1 -20 10 -30 9 -10 14 -24 10 -30 -4 -6 -1 -17 5
-25 6 -8 9 -19 5 -24 -3 -6 3 -29 14 -52 11 -23 18 -45 16 -50 -3 -4 4 -24 15
-45 12 -20 19 -38 16 -41 -2 -2 6 -30 19 -61 13 -31 31 -77 41 -102 10 -25 21
-47 24 -50 3 -3 13 -21 22 -40 17 -33 18 -106 19 -1078 0 -573 -3 -1047 -6
-1052 -3 -6 -17 -10 -30 -10 -13 0 -27 -5 -30 -10 -4 -6 -11 -8 -16 -5 -5 4
-9 1 -9 -5 0 -6 -7 -18 -15 -26 -13 -13 -15 -82 -15 -499 l0 -484 37 -30 c21
-17 48 -31 60 -31 17 0 23 -6 23 -22 1 -13 1 -134 0 -269 l-1 -246 26 -17 c15
-10 33 -15 40 -12 8 3 17 1 21 -5 3 -6 12 -8 19 -5 7 2 21 -2 32 -9 10 -7 30
-14 43 -14 91 -5 109 -8 122 -19 9 -7 31 -12 49 -12 77 2 227 -9 269 -19 58
-13 194 -13 245 0 22 6 45 11 52 11 9 1 12 71 13 275 0 150 3 280 6 288 4 10
16 14 33 12 l26 -4 5 -384 c4 -300 8 -383 18 -381 6 1 12 -3 12 -9 0 -5 8 -9
18 -7 11 2 26 -3 35 -10 8 -7 35 -14 59 -14 23 -1 50 -7 59 -15 9 -7 29 -13
45 -13 68 0 113 -6 127 -18 8 -7 37 -12 63 -12 27 1 108 -2 179 -6 163 -9 254
-9 425 0 74 4 153 7 174 7 22 -1 45 4 53 10 11 10 63 18 133 20 14 0 34 6 45
12 11 6 40 13 65 14 26 2 50 10 57 19 6 9 16 13 22 10 6 -4 19 -1 31 6 20 13
20 21 20 383 0 203 4 375 8 380 11 16 48 17 60 2 8 -9 12 -102 12 -293 1 -255
3 -280 18 -281 170 -14 217 -15 274 -3 55 11 166 19 278 21 19 0 44 6 56 14
11 7 38 14 60 14 21 1 50 2 64 2 14 0 28 6 32 12 4 7 20 13 35 14 49 3 67 8
91 23 22 15 22 16 22 282 l0 268 25 0 c14 0 25 5 25 10 0 6 6 10 14 10 21 0
48 30 42 46 -3 7 -1 16 4 19 12 7 12 915 0 915 -5 0 -7 11 -4 24 5 29 -39 66
-80 66 l-26 0 -1 238 c-1 130 0 568 1 972 2 692 3 736 20 752 10 9 21 14 24
11 3 -4 6 1 6 11 0 9 5 14 10 11 6 -3 10 -1 10 6 0 7 3 9 7 6 3 -4 21 9 40 29
18 20 33 33 34 28 0 -5 4 1 10 14 5 13 13 20 19 17 5 -3 10 0 10 8 0 8 11 23
25 33 13 10 30 31 36 46 6 15 18 28 26 28 9 0 13 6 9 15 -3 8 -1 15 4 15 21 0
147 301 134 321 -3 5 -1 9 5 9 9 0 25 47 26 80 0 8 8 32 18 54 9 21 14 42 11
48 -3 5 0 16 7 24 6 8 9 17 6 20 -3 4 0 13 8 20 7 8 11 23 8 34 -3 12 0 20 7
20 7 0 10 6 7 14 -3 8 1 20 9 27 8 7 12 20 9 30 -4 11 -1 19 5 19 7 0 10 6 7
14 -3 8 0 20 8 26 7 6 11 20 8 30 -3 12 0 20 7 20 7 0 10 6 7 14 -3 8 1 17 9
20 9 3 13 10 10 15 -3 4 6 30 19 57 14 27 25 55 25 62 0 6 4 12 8 12 5 0 14
15 20 33 5 17 22 61 37 95 15 35 28 74 29 85 2 12 6 29 9 37 12 33 25 86 25
105 0 11 7 47 15 80 9 36 13 79 10 107 -4 31 -1 53 6 62 9 11 11 50 7 143 -3
70 -6 128 -7 128 -1 0 -3 16 -5 35 -4 48 -9 68 -16 76 -4 3 0 21 8 40 19 45
15 131 -7 168 -13 21 -15 34 -8 48 11 21 8 54 -9 86 -7 12 -10 26 -7 31 7 12
-16 121 -49 231 -41 140 -43 147 -87 245 -13 28 -24 52 -24 55 -1 3 -8 19 -15
35 -7 17 -14 33 -14 37 -1 4 -7 13 -13 19 -7 7 -13 19 -13 26 0 6 -7 16 -16
21 -9 5 -15 11 -14 13 4 9 -24 59 -32 59 -5 0 -6 5 -3 11 4 5 -2 18 -14 28
-11 10 -18 20 -16 23 3 3 -1 11 -10 18 -8 7 -15 19 -15 26 0 8 -3 14 -7 14 -5
0 -19 17 -33 37 -22 33 -190 207 -190 197 0 -2 -9 5 -20 16 -11 11 -24 20 -30
20 -5 0 -10 7 -10 15 0 8 -8 15 -18 15 -10 0 -25 8 -34 18 -30 31 -48 43 -68
45 -11 1 -20 7 -20 14 0 7 -7 10 -15 7 -8 -4 -15 -1 -15 6 0 7 -7 10 -15 6 -9
-3 -15 0 -15 10 0 10 -6 14 -15 11 -8 -4 -17 -2 -20 3 -3 5 -12 7 -19 4 -7 -3
-16 2 -20 11 -3 9 -10 14 -15 10 -5 -3 -12 -1 -16 4 -3 6 -12 8 -19 5 -7 -3
-16 2 -20 11 -3 10 -12 15 -21 11 -8 -3 -15 -1 -15 5 0 6 -7 9 -15 5 -8 -3
-18 2 -23 10 -4 8 -22 16 -40 17 -17 1 -34 8 -37 16 -3 7 -12 11 -20 7 -8 -3
-17 0 -21 5 -3 6 -15 9 -25 6 -13 -3 -19 0 -19 10 0 10 -6 14 -20 10 -11 -3
-23 -1 -26 4 -3 5 -14 9 -25 9 -10 0 -19 4 -19 9 0 5 -21 12 -47 16 -27 4 -52
10 -58 15 -11 8 -33 11 -82 11 -18 0 -34 7 -37 15 -3 7 -16 14 -28 14 -13 0
-96 2 -184 4 -89 2 -167 0 -174 -4z m210 -75 c23 -8 56 -15 74 -15 57 1 105
-6 118 -17 7 -6 29 -12 48 -14 19 -2 40 -7 46 -11 13 -10 48 -19 79 -21 11 -1
25 -8 30 -14 6 -7 28 -15 49 -17 22 -3 42 -10 46 -16 4 -7 11 -11 16 -11 5 1
23 -4 39 -10 17 -7 34 -11 39 -10 4 1 14 -3 22 -10 7 -6 18 -8 24 -4 5 3 10
-1 10 -10 0 -12 6 -15 20 -10 11 3 20 2 20 -3 0 -8 21 -19 55 -27 35 -9 55
-19 55 -26 0 -5 7 -9 15 -9 17 0 93 -38 101 -51 3 -5 10 -7 15 -4 5 4 9 1 9
-5 0 -7 5 -10 12 -8 6 2 24 -9 40 -25 15 -17 28 -27 28 -24 0 7 83 -67 141
-128 22 -21 39 -43 39 -47 0 -4 5 -8 10 -8 14 0 50 -37 43 -44 -4 -3 0 -6 7
-6 7 0 10 -3 7 -6 -4 -4 3 -15 15 -25 11 -11 18 -19 14 -19 -4 0 4 -15 18 -32
41 -52 42 -52 49 -68 4 -8 11 -22 16 -30 20 -30 111 -225 111 -236 0 -6 6 -16
13 -22 7 -6 14 -26 15 -44 2 -18 6 -35 11 -38 17 -11 32 -52 26 -70 -5 -15 -2
-20 10 -20 12 0 16 -6 12 -20 -3 -11 -1 -22 3 -25 5 -3 7 -15 5 -27 -3 -12 3
-30 11 -39 9 -10 13 -23 9 -29 -4 -6 -1 -17 5 -25 7 -8 10 -22 6 -31 -3 -8 -1
-25 5 -36 6 -11 13 -59 16 -107 2 -47 11 -99 19 -115 16 -34 18 -60 5 -85 -14
-25 -14 -97 -1 -156 15 -70 15 -276 0 -360 -7 -38 -12 -86 -12 -105 1 -19 -4
-40 -9 -47 -6 -7 -8 -17 -4 -23 3 -5 0 -19 -8 -31 -8 -11 -13 -29 -10 -40 3
-10 0 -19 -6 -19 -6 0 -11 -11 -11 -24 0 -14 -4 -27 -10 -31 -5 -3 -7 -12 -3
-20 3 -8 0 -15 -7 -15 -7 0 -10 -6 -7 -14 3 -8 -1 -17 -10 -20 -8 -4 -13 -13
-9 -21 3 -8 1 -17 -5 -20 -5 -4 -7 -11 -4 -16 4 -5 -1 -12 -9 -15 -9 -3 -14
-10 -11 -14 3 -5 1 -11 -5 -15 -6 -4 -8 -10 -5 -15 3 -4 -2 -13 -9 -20 -8 -6
-18 -25 -21 -41 -4 -16 -11 -31 -16 -34 -5 -4 -9 -13 -9 -22 0 -8 -6 -29 -14
-46 -28 -63 -89 -253 -91 -287 -1 -8 -7 -28 -14 -45 -8 -16 -13 -40 -12 -52 0
-13 -3 -23 -8 -23 -9 0 -24 -55 -34 -123 -1 -10 -8 -22 -16 -26 -7 -5 -11 -13
-7 -19 3 -6 -3 -27 -14 -46 -11 -20 -20 -39 -21 -44 -1 -4 -6 -18 -11 -32 -5
-14 -9 -27 -10 -30 0 -3 -4 -11 -10 -17 -6 -7 -8 -13 -4 -13 3 0 -3 -9 -14
-20 -11 -11 -20 -26 -20 -34 0 -8 -3 -16 -7 -18 -5 -1 -20 -21 -35 -43 -33
-48 -115 -135 -127 -135 -5 0 -14 -7 -21 -15 -7 -8 -16 -15 -21 -15 -5 0 -9
363 -9 835 0 661 3 835 13 836 6 1 18 1 25 0 8 -1 20 3 28 10 8 6 14 8 14 3 0
-5 8 3 18 16 16 23 17 63 17 500 -1 261 -3 482 -6 491 -6 21 -29 49 -37 47 -4
0 -22 5 -39 13 l-33 13 0 231 c0 126 -4 236 -8 243 -5 7 -16 10 -25 6 -11 -4
-19 0 -23 10 -3 8 -16 16 -27 16 -58 1 -85 6 -99 18 -8 6 -26 12 -39 12 -68 1
-116 7 -134 17 -24 12 -84 15 -360 15 l-210 0 -2 -242 c-2 -266 -5 -279 -57
-266 l-26 6 0 366 c0 400 4 375 -61 378 -16 1 -33 7 -37 13 -4 7 -16 12 -27
13 -55 1 -95 8 -107 17 -12 10 -39 13 -118 15 -41 1 -72 25 -49 38 7 5 10 12
6 16 -4 4 -2 13 5 21 6 7 8 16 5 19 -3 4 3 15 13 27 11 11 17 23 15 27 -3 5 2
11 11 14 8 3 12 10 9 16 -3 5 -1 10 6 10 7 0 10 3 7 6 -6 6 27 44 38 44 3 0
11 6 19 13 23 22 68 52 77 52 5 0 13 6 17 14 5 7 14 10 20 7 6 -4 17 -4 24 1
6 4 26 8 42 9 17 1 48 7 70 12 22 5 43 10 46 11 4 0 26 -6 49 -14z m-1620 -72
c36 -2 81 -5 100 -5 19 -1 38 -6 42 -12 7 -10 32 -15 86 -17 13 -1 22 -7 22
-16 0 -10 7 -14 20 -10 11 3 23 1 26 -4 3 -5 9 -7 14 -4 4 3 11 -2 14 -11 3
-8 10 -13 15 -9 5 3 12 1 16 -5 4 -6 11 -8 16 -5 5 4 9 -1 9 -9 0 -9 4 -16 10
-16 14 0 100 -86 100 -100 0 -17 -41 -28 -92 -23 -26 3 -56 -1 -70 -8 -13 -7
-45 -14 -73 -16 -100 -7 -110 -8 -125 -18 -14 -9 -40 -13 -95 -15 -10 -1 -25
-6 -32 -11 -6 -6 -27 -13 -45 -15 -18 -3 -39 -7 -45 -9 -10 -3 -13 -86 -13
-370 0 -329 -2 -366 -16 -372 -9 -3 -24 -2 -33 4 -14 9 -16 43 -19 259 l-2
249 -218 -1 c-297 -2 -343 -4 -366 -16 -19 -10 -76 -18 -136 -19 -14 -1 -31
-6 -38 -12 -7 -5 -27 -12 -45 -13 -18 -2 -39 -4 -47 -5 -8 -1 -23 -8 -32 -16
-9 -8 -21 -12 -27 -9 -9 6 -23 -22 -20 -40 1 -5 1 -107 0 -226 -1 -206 -2
-218 -20 -218 -10 0 -24 -7 -31 -15 -7 -8 -16 -12 -21 -10 -4 3 -17 -5 -29
-17 -20 -22 -21 -27 -18 -516 l3 -494 24 -20 c16 -12 33 -17 47 -14 12 3 27 0
33 -8 8 -10 12 -196 12 -686 0 -370 -3 -675 -6 -678 -3 -3 -13 3 -23 14 -17
18 -21 32 -23 76 0 10 -4 20 -10 23 -5 4 -9 15 -9 26 0 10 -5 19 -11 19 -7 0
-9 10 -5 24 3 14 2 27 -3 30 -8 5 -19 43 -26 91 -2 11 -9 34 -16 50 -7 17 -11
34 -10 39 1 4 -5 29 -13 55 -8 25 -26 91 -41 146 -14 55 -30 107 -34 115 -5 9
-12 36 -16 60 -4 25 -12 51 -18 58 -6 8 -12 32 -15 55 -2 23 -9 49 -16 57 -8
8 -11 21 -9 28 3 7 0 19 -6 26 -6 7 -9 21 -5 30 4 9 0 18 -9 22 -9 3 -16 18
-16 32 -1 56 -6 83 -20 91 -8 5 -11 16 -6 30 3 11 3 26 -2 33 -4 7 -9 27 -10
43 -2 40 -12 85 -25 112 -6 12 -8 29 -4 38 6 16 -8 83 -23 115 -4 8 -7 26 -6
40 2 14 -4 52 -12 85 -7 33 -15 76 -17 95 -2 19 -9 86 -16 149 -11 93 -11 135
0 235 7 66 14 132 15 146 1 14 9 49 18 79 9 29 15 57 12 61 -3 4 3 22 12 40 9
18 17 40 18 49 5 31 17 61 27 61 5 0 6 9 3 20 -4 12 -2 20 5 20 7 0 9 7 6 15
-3 9 1 18 9 21 8 4 13 10 10 14 -3 5 -1 11 5 15 6 4 8 11 5 16 -4 5 1 12 9 15
9 3 14 10 11 14 -3 5 -1 11 5 15 6 4 8 10 5 15 -3 5 0 12 7 17 7 4 24 29 38
56 13 26 28 47 32 47 5 0 8 7 8 16 0 15 38 70 82 118 10 11 18 25 18 31 0 6 9
17 21 25 11 8 27 27 35 42 14 28 140 158 146 152 2 -2 20 11 40 29 20 18 47
39 59 47 12 8 31 25 42 37 10 12 26 19 33 16 9 -3 14 1 14 12 0 9 5 13 10 10
6 -3 10 -1 10 5 0 6 4 9 9 6 5 -3 12 1 15 9 3 8 9 14 13 13 11 -2 86 35 95 46
3 6 19 11 35 13 15 2 33 10 39 18 6 8 14 12 17 8 4 -3 13 -1 20 5 8 7 17 9 21
5 4 -4 11 -2 15 6 7 11 24 16 84 24 10 1 21 7 25 12 7 10 42 14 122 15 25 0
59 5 75 10 17 5 59 7 95 4 36 -4 94 -8 130 -11z m1091 -1099 c5 -3 152 -9 327
-14 174 -5 351 -14 392 -20 41 -5 147 -14 235 -20 158 -10 417 -33 505 -45 25
-4 51 -14 58 -23 9 -12 12 -123 12 -476 0 -254 -4 -467 -9 -474 -9 -15 -26
-14 -476 12 -459 28 -716 34 -1410 34 -702 0 -964 -6 -1410 -33 -438 -27 -465
-28 -481 -14 -12 10 -14 85 -14 475 0 510 -2 494 61 494 17 0 39 4 49 10 10 5
76 12 147 16 70 3 144 9 163 14 19 5 103 11 185 15 83 3 175 10 205 15 30 6
199 15 375 21 176 6 354 14 395 18 82 9 676 4 691 -5z m-1191 -1539 l0 -465
820 0 820 0 2 463 3 462 23 3 c53 8 52 15 52 -474 l0 -454 269 0 c169 0 272
-4 276 -10 3 -5 13 -10 21 -10 26 0 59 -43 78 -102 6 -19 10 -818 4 -822 -2
-2 -15 -6 -30 -10 l-27 -6 -3 421 -3 421 -30 24 -30 24 -1427 0 c-946 0 -1428
-3 -1428 -10 0 -5 -6 -9 -12 -7 -7 1 -12 -3 -11 -9 1 -7 -7 -20 -17 -29 -19
-17 -20 -34 -20 -434 0 -229 -4 -411 -8 -406 -4 6 -17 15 -30 20 l-22 10 0
393 c0 233 4 408 10 431 10 37 30 60 82 94 24 15 57 17 298 17 l270 0 0 453
c0 480 0 477 47 477 l23 0 0 -465z m2103 -749 c24 -24 25 -33 32 -193 12 -264
0 -1212 -15 -1244 -28 -60 23 -58 -1289 -58 -819 0 -1212 4 -1241 11 -30 8
-48 20 -61 42 -18 30 -19 62 -19 708 0 386 4 687 9 701 5 13 17 31 26 40 15
16 117 17 1275 17 l1259 0 24 -24z m-2795 -762 l22 -6 0 -419 c0 -363 2 -420
15 -425 8 -4 13 -9 11 -13 -7 -10 9 -32 25 -35 8 -1 24 -7 36 -14 33 -18 2814
-13 2821 6 2 6 8 10 12 7 5 -3 20 5 32 17 l23 23 3 420 c2 245 7 424 12 429
14 14 50 15 50 2 2 -32 -2 -835 -3 -856 -2 -26 -57 -89 -92 -105 -11 -6 -139
-12 -285 -15 l-265 -5 -3 -429 c-1 -297 -6 -433 -13 -443 -6 -7 -24 -13 -40
-13 l-29 0 -2 443 -3 442 -817 3 -818 2 0 -445 c0 -349 -3 -445 -12 -446 -24
-2 -43 3 -50 14 -4 7 -8 206 -8 444 l0 432 -257 1 c-141 0 -268 3 -282 7 -34
9 -86 58 -107 101 -15 33 -17 78 -16 452 1 228 2 418 2 423 0 8 8 9 38 1z
m-181 -1873 c17 -5 129 -12 248 -15 119 -4 237 -11 263 -16 26 -5 227 -11 447
-14 220 -4 470 -8 555 -11 127 -4 851 8 1225 21 76 2 473 24 748 41 52 3 83 1
93 -7 12 -11 14 -84 14 -474 0 -355 -3 -466 -12 -478 -7 -9 -29 -19 -48 -23
-49 -9 -304 -33 -495 -45 -88 -6 -189 -15 -225 -21 -140 -21 -1138 -48 -1405
-38 -88 3 -297 11 -465 17 -168 7 -332 16 -365 21 -33 6 -125 13 -205 16 -80
3 -165 10 -190 15 -25 5 -99 14 -165 19 -160 13 -198 20 -212 39 -19 23 -19
913 -1 942 11 17 24 20 88 20 41 0 89 -4 107 -9z"/>
</g>
</svg>
